<mxfile host="app.diagrams.net" modified="2023-04-13T15:46:01.052Z" agent="Mozilla/5.0 (Windows NT 10.0; Win64; x64) AppleWebKit/537.36 (KHTML, like Gecko) Chrome/111.0.0.0 Safari/537.36" etag="QOoMmmkYFct8J53xnWAV" version="21.1.7" type="device">
  <diagram name="Trang-1" id="2c8AOubSLkgFrrMoEyiY">
    <mxGraphModel dx="1400" dy="764" grid="1" gridSize="10" guides="1" tooltips="1" connect="1" arrows="1" fold="1" page="1" pageScale="1" pageWidth="3300" pageHeight="4681" math="0" shadow="0">
      <root>
        <mxCell id="0" />
        <mxCell id="1" parent="0" />
        <mxCell id="uvTS3VmrBhTLHeoMEQkP-1" value="Website&lt;br&gt;Administrator" style="shape=umlActor;verticalLabelPosition=bottom;verticalAlign=top;html=1;outlineConnect=0;" vertex="1" parent="1">
          <mxGeometry x="390" y="620" width="30" height="60" as="geometry" />
        </mxCell>
        <mxCell id="uvTS3VmrBhTLHeoMEQkP-2" value="Help Desk" style="shape=umlActor;verticalLabelPosition=bottom;verticalAlign=top;html=1;outlineConnect=0;" vertex="1" parent="1">
          <mxGeometry x="390" y="830" width="30" height="60" as="geometry" />
        </mxCell>
        <mxCell id="uvTS3VmrBhTLHeoMEQkP-3" value="&amp;lt;&amp;lt; Web Applications &amp;gt;&amp;gt;&lt;br&gt;Admin Website" style="text;html=1;strokeColor=none;fillColor=none;align=center;verticalAlign=middle;whiteSpace=wrap;rounded=0;" vertex="1" parent="1">
          <mxGeometry x="480" y="330" width="160" height="50" as="geometry" />
        </mxCell>
        <mxCell id="uvTS3VmrBhTLHeoMEQkP-5" value="" style="ellipse;whiteSpace=wrap;html=1;" vertex="1" parent="1">
          <mxGeometry x="560" y="470" width="120" height="70" as="geometry" />
        </mxCell>
        <mxCell id="uvTS3VmrBhTLHeoMEQkP-6" value="" style="ellipse;whiteSpace=wrap;html=1;" vertex="1" parent="1">
          <mxGeometry x="560" y="560" width="120" height="70" as="geometry" />
        </mxCell>
        <mxCell id="uvTS3VmrBhTLHeoMEQkP-7" value="" style="ellipse;whiteSpace=wrap;html=1;" vertex="1" parent="1">
          <mxGeometry x="560" y="660" width="120" height="70" as="geometry" />
        </mxCell>
        <mxCell id="uvTS3VmrBhTLHeoMEQkP-8" value="" style="ellipse;whiteSpace=wrap;html=1;" vertex="1" parent="1">
          <mxGeometry x="560" y="760" width="120" height="70" as="geometry" />
        </mxCell>
        <mxCell id="uvTS3VmrBhTLHeoMEQkP-9" value="" style="ellipse;whiteSpace=wrap;html=1;" vertex="1" parent="1">
          <mxGeometry x="560" y="850" width="120" height="70" as="geometry" />
        </mxCell>
        <mxCell id="uvTS3VmrBhTLHeoMEQkP-10" value="" style="ellipse;whiteSpace=wrap;html=1;" vertex="1" parent="1">
          <mxGeometry x="560" y="950" width="120" height="70" as="geometry" />
        </mxCell>
        <mxCell id="uvTS3VmrBhTLHeoMEQkP-11" value="" style="ellipse;whiteSpace=wrap;html=1;" vertex="1" parent="1">
          <mxGeometry x="750" y="370" width="120" height="70" as="geometry" />
        </mxCell>
        <mxCell id="uvTS3VmrBhTLHeoMEQkP-12" value="Manage User&lt;br&gt;(Abstract)" style="text;html=1;strokeColor=none;fillColor=none;align=center;verticalAlign=middle;whiteSpace=wrap;rounded=0;" vertex="1" parent="1">
          <mxGeometry x="760" y="390" width="100" height="30" as="geometry" />
        </mxCell>
        <mxCell id="uvTS3VmrBhTLHeoMEQkP-13" value="Create User" style="text;html=1;strokeColor=none;fillColor=none;align=center;verticalAlign=middle;whiteSpace=wrap;rounded=0;" vertex="1" parent="1">
          <mxGeometry x="580" y="490" width="80" height="30" as="geometry" />
        </mxCell>
        <mxCell id="uvTS3VmrBhTLHeoMEQkP-14" value="Update User" style="text;html=1;strokeColor=none;fillColor=none;align=center;verticalAlign=middle;whiteSpace=wrap;rounded=0;" vertex="1" parent="1">
          <mxGeometry x="585" y="580" width="70" height="30" as="geometry" />
        </mxCell>
        <mxCell id="uvTS3VmrBhTLHeoMEQkP-15" value="Delete User" style="text;html=1;strokeColor=none;fillColor=none;align=center;verticalAlign=middle;whiteSpace=wrap;rounded=0;" vertex="1" parent="1">
          <mxGeometry x="585" y="680" width="70" height="30" as="geometry" />
        </mxCell>
        <mxCell id="uvTS3VmrBhTLHeoMEQkP-16" value="Find User" style="text;html=1;strokeColor=none;fillColor=none;align=center;verticalAlign=middle;whiteSpace=wrap;rounded=0;" vertex="1" parent="1">
          <mxGeometry x="590" y="780" width="60" height="30" as="geometry" />
        </mxCell>
        <mxCell id="uvTS3VmrBhTLHeoMEQkP-17" value="Lock User" style="text;html=1;strokeColor=none;fillColor=none;align=center;verticalAlign=middle;whiteSpace=wrap;rounded=0;" vertex="1" parent="1">
          <mxGeometry x="590" y="870" width="60" height="30" as="geometry" />
        </mxCell>
        <mxCell id="uvTS3VmrBhTLHeoMEQkP-18" value="Unlock User" style="text;html=1;strokeColor=none;fillColor=none;align=center;verticalAlign=middle;whiteSpace=wrap;rounded=0;" vertex="1" parent="1">
          <mxGeometry x="580" y="970" width="80" height="30" as="geometry" />
        </mxCell>
        <mxCell id="uvTS3VmrBhTLHeoMEQkP-19" value="" style="endArrow=none;html=1;rounded=0;entryX=0;entryY=1;entryDx=0;entryDy=0;exitX=1;exitY=0.3333333333333333;exitDx=0;exitDy=0;exitPerimeter=0;" edge="1" parent="1" source="uvTS3VmrBhTLHeoMEQkP-1" target="uvTS3VmrBhTLHeoMEQkP-6">
          <mxGeometry width="50" height="50" relative="1" as="geometry">
            <mxPoint x="450" y="640" as="sourcePoint" />
            <mxPoint x="470" y="610" as="targetPoint" />
          </mxGeometry>
        </mxCell>
        <mxCell id="uvTS3VmrBhTLHeoMEQkP-20" value="" style="endArrow=none;html=1;rounded=0;entryX=0;entryY=0.5;entryDx=0;entryDy=0;exitX=1;exitY=0.3333333333333333;exitDx=0;exitDy=0;exitPerimeter=0;" edge="1" parent="1" source="uvTS3VmrBhTLHeoMEQkP-1" target="uvTS3VmrBhTLHeoMEQkP-7">
          <mxGeometry width="50" height="50" relative="1" as="geometry">
            <mxPoint x="430" y="660" as="sourcePoint" />
            <mxPoint x="510" y="650" as="targetPoint" />
          </mxGeometry>
        </mxCell>
        <mxCell id="uvTS3VmrBhTLHeoMEQkP-21" value="" style="endArrow=none;html=1;rounded=0;exitX=1;exitY=0.3333333333333333;exitDx=0;exitDy=0;exitPerimeter=0;" edge="1" parent="1" source="uvTS3VmrBhTLHeoMEQkP-1" target="uvTS3VmrBhTLHeoMEQkP-8">
          <mxGeometry width="50" height="50" relative="1" as="geometry">
            <mxPoint x="450" y="770" as="sourcePoint" />
            <mxPoint x="500" y="720" as="targetPoint" />
          </mxGeometry>
        </mxCell>
        <mxCell id="uvTS3VmrBhTLHeoMEQkP-22" value="" style="endArrow=none;html=1;rounded=0;exitX=1;exitY=0.3333333333333333;exitDx=0;exitDy=0;exitPerimeter=0;" edge="1" parent="1" source="uvTS3VmrBhTLHeoMEQkP-1" target="uvTS3VmrBhTLHeoMEQkP-9">
          <mxGeometry width="50" height="50" relative="1" as="geometry">
            <mxPoint x="400" y="870" as="sourcePoint" />
            <mxPoint x="450" y="820" as="targetPoint" />
          </mxGeometry>
        </mxCell>
        <mxCell id="uvTS3VmrBhTLHeoMEQkP-23" value="" style="endArrow=none;html=1;rounded=0;exitX=1;exitY=0.3333333333333333;exitDx=0;exitDy=0;exitPerimeter=0;" edge="1" parent="1" source="uvTS3VmrBhTLHeoMEQkP-1" target="uvTS3VmrBhTLHeoMEQkP-10">
          <mxGeometry width="50" height="50" relative="1" as="geometry">
            <mxPoint x="400" y="870" as="sourcePoint" />
            <mxPoint x="450" y="820" as="targetPoint" />
          </mxGeometry>
        </mxCell>
        <mxCell id="uvTS3VmrBhTLHeoMEQkP-24" value="" style="endArrow=none;html=1;rounded=0;exitX=1;exitY=0.3333333333333333;exitDx=0;exitDy=0;exitPerimeter=0;" edge="1" parent="1" source="uvTS3VmrBhTLHeoMEQkP-2" target="uvTS3VmrBhTLHeoMEQkP-6">
          <mxGeometry width="50" height="50" relative="1" as="geometry">
            <mxPoint x="430" y="830" as="sourcePoint" />
            <mxPoint x="450" y="820" as="targetPoint" />
          </mxGeometry>
        </mxCell>
        <mxCell id="uvTS3VmrBhTLHeoMEQkP-25" value="" style="endArrow=none;html=1;rounded=0;entryX=0;entryY=1;entryDx=0;entryDy=0;exitX=1;exitY=0.3333333333333333;exitDx=0;exitDy=0;exitPerimeter=0;" edge="1" parent="1" source="uvTS3VmrBhTLHeoMEQkP-2" target="uvTS3VmrBhTLHeoMEQkP-7">
          <mxGeometry width="50" height="50" relative="1" as="geometry">
            <mxPoint x="400" y="870" as="sourcePoint" />
            <mxPoint x="450" y="820" as="targetPoint" />
          </mxGeometry>
        </mxCell>
        <mxCell id="uvTS3VmrBhTLHeoMEQkP-26" value="" style="endArrow=none;html=1;rounded=0;entryX=0;entryY=0.5;entryDx=0;entryDy=0;" edge="1" parent="1" target="uvTS3VmrBhTLHeoMEQkP-8">
          <mxGeometry width="50" height="50" relative="1" as="geometry">
            <mxPoint x="420" y="850" as="sourcePoint" />
            <mxPoint x="450" y="820" as="targetPoint" />
          </mxGeometry>
        </mxCell>
        <mxCell id="uvTS3VmrBhTLHeoMEQkP-27" value="" style="endArrow=none;html=1;rounded=0;entryX=0;entryY=0.5;entryDx=0;entryDy=0;exitX=1;exitY=0.3333333333333333;exitDx=0;exitDy=0;exitPerimeter=0;" edge="1" parent="1" source="uvTS3VmrBhTLHeoMEQkP-2" target="uvTS3VmrBhTLHeoMEQkP-9">
          <mxGeometry width="50" height="50" relative="1" as="geometry">
            <mxPoint x="400" y="870" as="sourcePoint" />
            <mxPoint x="450" y="820" as="targetPoint" />
          </mxGeometry>
        </mxCell>
        <mxCell id="uvTS3VmrBhTLHeoMEQkP-28" value="" style="endArrow=none;html=1;rounded=0;exitX=1;exitY=0.3333333333333333;exitDx=0;exitDy=0;exitPerimeter=0;" edge="1" parent="1" source="uvTS3VmrBhTLHeoMEQkP-2" target="uvTS3VmrBhTLHeoMEQkP-10">
          <mxGeometry width="50" height="50" relative="1" as="geometry">
            <mxPoint x="400" y="870" as="sourcePoint" />
            <mxPoint x="450" y="820" as="targetPoint" />
          </mxGeometry>
        </mxCell>
        <mxCell id="uvTS3VmrBhTLHeoMEQkP-29" value="" style="endArrow=none;html=1;rounded=0;entryX=0;entryY=0.5;entryDx=0;entryDy=0;exitX=1;exitY=0.3333333333333333;exitDx=0;exitDy=0;exitPerimeter=0;" edge="1" parent="1" source="uvTS3VmrBhTLHeoMEQkP-1" target="uvTS3VmrBhTLHeoMEQkP-5">
          <mxGeometry width="50" height="50" relative="1" as="geometry">
            <mxPoint x="410" y="610" as="sourcePoint" />
            <mxPoint x="549" y="572" as="targetPoint" />
          </mxGeometry>
        </mxCell>
        <mxCell id="uvTS3VmrBhTLHeoMEQkP-30" value="" style="endArrow=diamondThin;endFill=0;endSize=24;html=1;rounded=0;entryX=0.5;entryY=1;entryDx=0;entryDy=0;" edge="1" parent="1" target="uvTS3VmrBhTLHeoMEQkP-11">
          <mxGeometry width="160" relative="1" as="geometry">
            <mxPoint x="680" y="984.52" as="sourcePoint" />
            <mxPoint x="840" y="984.52" as="targetPoint" />
            <Array as="points">
              <mxPoint x="810" y="985" />
            </Array>
          </mxGeometry>
        </mxCell>
        <mxCell id="uvTS3VmrBhTLHeoMEQkP-31" value="" style="line;strokeWidth=1;fillColor=none;align=left;verticalAlign=middle;spacingTop=-1;spacingLeft=3;spacingRight=3;rotatable=0;labelPosition=right;points=[];portConstraint=eastwest;strokeColor=inherit;" vertex="1" parent="1">
          <mxGeometry x="680" y="881" width="130" height="8" as="geometry" />
        </mxCell>
        <mxCell id="uvTS3VmrBhTLHeoMEQkP-32" value="" style="line;strokeWidth=1;fillColor=none;align=left;verticalAlign=middle;spacingTop=-1;spacingLeft=3;spacingRight=3;rotatable=0;labelPosition=right;points=[];portConstraint=eastwest;strokeColor=inherit;" vertex="1" parent="1">
          <mxGeometry x="680" y="719.5" width="130" height="151" as="geometry" />
        </mxCell>
        <mxCell id="uvTS3VmrBhTLHeoMEQkP-33" value="" style="line;strokeWidth=1;fillColor=none;align=left;verticalAlign=middle;spacingTop=-1;spacingLeft=3;spacingRight=3;rotatable=0;labelPosition=right;points=[];portConstraint=eastwest;strokeColor=inherit;" vertex="1" parent="1">
          <mxGeometry x="680" y="619.5" width="130" height="151" as="geometry" />
        </mxCell>
        <mxCell id="uvTS3VmrBhTLHeoMEQkP-34" value="" style="line;strokeWidth=1;fillColor=none;align=left;verticalAlign=middle;spacingTop=-1;spacingLeft=3;spacingRight=3;rotatable=0;labelPosition=right;points=[];portConstraint=eastwest;strokeColor=inherit;" vertex="1" parent="1">
          <mxGeometry x="680" y="520" width="130" height="151" as="geometry" />
        </mxCell>
        <mxCell id="uvTS3VmrBhTLHeoMEQkP-35" value="" style="line;strokeWidth=1;fillColor=none;align=left;verticalAlign=middle;spacingTop=-1;spacingLeft=3;spacingRight=3;rotatable=0;labelPosition=right;points=[];portConstraint=eastwest;strokeColor=inherit;" vertex="1" parent="1">
          <mxGeometry x="680" y="429.5" width="130" height="151" as="geometry" />
        </mxCell>
      </root>
    </mxGraphModel>
  </diagram>
</mxfile>
